HIERARCHY
ROOT hip
{
  OFFSET 0 0 0
  CHANNELS 6 Xposition Yposition Zposition Zrotation Yrotation Xrotation
  JOINT abdomen
  {
    OFFSET 0 20.6881 -0.73152
    CHANNELS 3 Zrotation Xrotation Yrotation
    JOINT chest
    {
      OFFSET 0 11.7043 -0.48768
      CHANNELS 3 Zrotation Xrotation Yrotation
      JOINT neck
      {
        OFFSET 0 22.1894 -2.19456
        CHANNELS 3 Zrotation Xrotation Yrotation
        JOINT head
        {
          OFFSET -0.24384 7.07133 1.2192
          CHANNELS 3 Zrotation Xrotation Yrotation
          JOINT leftEye
          {
            OFFSET 4.14528 8.04674 8.04672
            CHANNELS 3 Zrotation Xrotation Yrotation
            End Site
            {
              OFFSET 1 0 0
            }
          }
          JOINT rightEye
          {
            OFFSET -3.6576 8.04674 8.04672
            CHANNELS 3 Zrotation Xrotation Yrotation
            End Site
            {
              OFFSET 1 0 0
            }
          }
        }
      }
      JOINT rCollar
      {
        OFFSET -2.68224 19.2634 -4.8768
        CHANNELS 3 Zrotation Xrotation Yrotation
        JOINT rShldr
        {
          OFFSET -8.77824 -1.95073 1.46304
          CHANNELS 3 Zrotation Xrotation Yrotation
          JOINT rForeArm
          {
            OFFSET -28.1742 -1.7115 0.48768
            CHANNELS 3 Zrotation Xrotation Yrotation
            JOINT rHand
            {
              OFFSET -22.5879 0.773209 7.07136
              CHANNELS 3 Zrotation Xrotation Yrotation
              JOINT rThumb1
              {
                OFFSET -1.2192 -0.487915 3.41376
                CHANNELS 3 Zrotation Xrotation Yrotation
                JOINT rThumb2
                {
                  OFFSET -3.37035 -0.52449 3.41376
                  CHANNELS 3 Zrotation Xrotation Yrotation
                  End Site
                  {
                    OFFSET -1.78271 -1.18214 1.43049
                  }
                }
              }
              JOINT rIndex1
              {
                OFFSET -7.75947 0.938293 5.60832
                CHANNELS 3 Zrotation Xrotation Yrotation
                JOINT rIndex2
                {
                  OFFSET -2.54057 -0.884171 1.56538
                  CHANNELS 3 Zrotation Xrotation Yrotation
                  End Site
                  {
                    OFFSET -1.62519 -0.234802 1.16502
                  }
                }
              }
              JOINT rMid1
              {
                OFFSET -8.24714 1.18213 3.41376
                CHANNELS 3 Zrotation Xrotation Yrotation
                JOINT rMid2
                {
                  OFFSET -3.10165 -0.590103 1.0647
                  CHANNELS 3 Zrotation Xrotation Yrotation
                  End Site
                  {
                    OFFSET -2.48547 -0.328903 0.83742
                  }
                }
              }
              JOINT rRing1
              {
                OFFSET -8.82822 0.546677 1.51678
                CHANNELS 3 Zrotation Xrotation Yrotation
                JOINT rRing2
                {
                  OFFSET -2.60934 -0.819778 -0.0198488
                  CHANNELS 3 Zrotation Xrotation Yrotation
                  End Site
                  {
                    OFFSET -2.33842 -0.294052 0.168128
                  }
                }
              }
              JOINT rPinky1
              {
                OFFSET -8.27202 -0.0477905 -0.4584
                CHANNELS 3 Zrotation Xrotation Yrotation
                JOINT rPinky2
                {
                  OFFSET -1.82734 -0.647385 -0.700984
                  CHANNELS 3 Zrotation Xrotation Yrotation
                  End Site
                  {
                    OFFSET -1.69225 -0.51767 -0.607171
                  }
                }
              }
            }
          }
        }
      }
      JOINT lCollar
      {
        OFFSET 2.68224 19.2634 -4.8768
        CHANNELS 3 Zrotation Xrotation Yrotation
        JOINT lShldr
        {
          OFFSET 8.77824 -1.95073 1.46304
          CHANNELS 3 Zrotation Xrotation Yrotation
          JOINT lForeArm
          {
            OFFSET 28.1742 -1.7115 0.48768
            CHANNELS 3 Zrotation Xrotation Yrotation
            JOINT lHand
            {
              OFFSET 22.5879 0.773209 7.07136
              CHANNELS 3 Zrotation Xrotation Yrotation
              JOINT lThumb1
              {
                OFFSET 1.2192 -0.487915 3.41376
                CHANNELS 3 Zrotation Xrotation Yrotation
                JOINT lThumb2
                {
                  OFFSET 3.37035 -0.52449 3.41376
                  CHANNELS 3 Zrotation Xrotation Yrotation
                  End Site
                  {
                    OFFSET 1.78271 -1.18214 1.43049
                  }
                }
              }
              JOINT lIndex1
              {
                OFFSET 7.75947 0.938293 5.60832
                CHANNELS 3 Zrotation Xrotation Yrotation
                JOINT lIndex2
                {
                  OFFSET 2.54057 -0.884171 1.56538
                  CHANNELS 3 Zrotation Xrotation Yrotation
                  End Site
                  {
                    OFFSET 1.62519 -0.234802 1.16502
                  }
                }
              }
              JOINT lMid1
              {
                OFFSET 8.24714 1.18213 3.41376
                CHANNELS 3 Zrotation Xrotation Yrotation
                JOINT lMid2
                {
                  OFFSET 3.10165 -0.590103 1.0647
                  CHANNELS 3 Zrotation Xrotation Yrotation
                  End Site
                  {
                    OFFSET 2.48547 -0.328903 0.83742
                  }
                }
              }
              JOINT lRing1
              {
                OFFSET 8.82822 0.546677 1.51678
                CHANNELS 3 Zrotation Xrotation Yrotation
                JOINT lRing2
                {
                  OFFSET 2.60934 -0.819778 -0.0198488
                  CHANNELS 3 Zrotation Xrotation Yrotation
                  End Site
                  {
                    OFFSET 2.33842 -0.294052 0.168128
                  }
                }
              }
              JOINT lPinky1
              {
                OFFSET 8.27202 -0.0477905 -0.4584
                CHANNELS 3 Zrotation Xrotation Yrotation
                JOINT lPinky2
                {
                  OFFSET 1.82734 -0.647385 -0.700984
                  CHANNELS 3 Zrotation Xrotation Yrotation
                  End Site
                  {
                    OFFSET 1.69225 -0.51767 -0.607171
                  }
                }
              }
            }
          }
        }
      }
    }
  }
  JOINT rButtock
  {
    OFFSET -8.77824 4.35084 1.2192
    CHANNELS 3 Zrotation Xrotation Yrotation
    JOINT rThigh
    {
      OFFSET 0 -1.70687 -2.19456
      CHANNELS 3 Zrotation Xrotation Yrotation
      JOINT rShin
      {
        OFFSET 0 -36.8199 0.73152
        CHANNELS 3 Zrotation Xrotation Yrotation
        JOINT rFoot
        {
          OFFSET 0.73152 -45.1104 -5.12064
          CHANNELS 3 Zrotation Xrotation Yrotation
          End Site
          {
            OFFSET -1.1221 -3.69964 12.103
          }
        }
      }
    }
  }
  JOINT lButtock
  {
    OFFSET 8.77824 4.35084 1.2192
    CHANNELS 3 Zrotation Xrotation Yrotation
    JOINT lThigh
    {
      OFFSET 0 -1.70687 -2.19456
      CHANNELS 3 Zrotation Xrotation Yrotation
      JOINT lShin
      {
        OFFSET 0 -36.8199 0.73152
        CHANNELS 3 Zrotation Xrotation Yrotation
        JOINT lFoot
        {
          OFFSET -0.73152 -45.1104 -5.12064
          CHANNELS 3 Zrotation Xrotation Yrotation
          End Site
          {
            OFFSET 1.1221 -3.69964 12.103
          }
        }
      }
    }
  }
}
MOTION
Frames:	4
Frame Time:	0.03333
0.0 0.0 0.0 0.0 0.0 0.0 0.0 0.0 0.0 0.0 0.0 0.0 0.0 0.0 0.0 0.0 0.0 0.0 0.0 0.0 0.0 0.0 0.0 0.0 0.0 0.0 0.0 0.0 0.0 0.0 0.0 0.0 0.0 0.0 0.0 0.0 0.0 0.0 0.0 0.0 0.0 0.0 0.0 0.0 0.0 0.0 0.0 0.0 0.0 0.0 0.0 0.0 0.0 0.0 0.0 0.0 0.0 0.0 0.0 0.0 0.0 0.0 0.0 0.0 0.0 0.0 0.0 0.0 0.0 0.0 0.0 0.0 0.0 0.0 0.0 0.0 0.0 0.0 0.0 0.0 0.0 0.0 0.0 0.0 0.0 0.0 0.0 0.0 0.0 0.0 0.0 0.0 0.0 0.0 0.0 0.0 0.0 0.0 0.0 0.0 0.0 0.0 0.0 0.0 0.0 0.0 0.0 0.0 0.0 0.0 0.0 0.0 0.0 0.0 0.0 0.0 0.0 0.0 0.0 0.0 0.0 0.0 0.0 0.0 0.0 0.0 0.0 0.0 0.0 0.0 0.0 0.0
-0.0906 61.659699999999994 -0.0902 -179.772728 45.08701 178.874197 -0.350402 4.21037 -0.0 -0.049709 8.294642 4.647641 9.208335 -9.728113 105.532043 45.240171 23.124548 98.602227 -22.011111 11.495195 -54.727062 -53.632817 -3.619189 7.152759 72.819841 8.875482 5.01801 -170.488754 -46.141974 169.148878 -177.176449 -33.706319 -5.248586 169.690665 9.250733 101.691634 171.33629 1.446493 72.989821 14.794198 15.928624 151.303963 -166.268454 2.320425 -111.48801 89.70306 31.647318 -108.20762 -39.443687 9.858629 -123.417861 -58.513445 34.940277 59.587805 7.167844 7.501807 -97.29229 -151.294931 64.152012 173.564763 -51.976372 22.760695 -87.117125 -3.834647 -18.771527 -3.536287 69.789565 -89.322116 165.779837 -5.554228 15.992493 -5.399221 -88.042649 -89.120436 112.809373 -171.768193 3.330305 -104.949268 166.125824 9.330341 -77.052595 57.658098 18.098364 -29.589588 140.975848 17.499457 -85.810017 174.473552 -14.617787 -119.726745 -176.538139 -35.326607 -87.60997 -41.992889 -45.505788 -60.86835 7.83993 6.639379 127.720646 -1.764345 -8.140068 0.569758 146.070961 42.058099 52.52468 8.049291 -3.345106 -8.347834 14.695198 -47.08967 17.727309 -2.92726 49.654527 2.194184 6.77128 1.125638 107.597496 72.406403 53.791085 -75.664592 -56.111855 -1.579492 -87.862192 -0.344768 58.774116 -0.0 -7.73399 -0.120485 -116.233367 -71.103651 -20.981838 101.53042
-0.4263 65.682 1.0274999999999999 175.335226 -37.766394 -178.921569 -6.26487 12.998696 -133.007902 0.538881 6.316904 132.449691 -14.707849 27.609245 -74.670006 44.682525 -2.22732 48.433361 28.929335 7.343608 27.939912 4.48123 -0.785504 -19.874829 -155.120567 -3.455636 162.303461 -173.869267 60.933621 134.046671 27.209224 64.968796 22.929867 -8.534562 24.759042 0.213657 -4.890062 -8.021245 -4.580511 -127.393895 -35.133665 110.784775 -8.649704 -5.556659 -7.096069 -141.822189 -1.569509 109.994531 -159.878653 10.819565 134.086713 -160.854864 10.737633 122.935403 -83.703294 82.145885 87.435628 126.859578 -75.94948 127.299354 -142.686095 -17.01351 -131.640205 -25.403985 -30.436476 -36.090455 162.212725 -49.648815 -165.107587 18.177712 21.906828 32.079053 4.116094 -56.253391 79.170973 -170.671482 -17.378744 -142.221755 170.749477 -2.714543 -88.918014 136.940524 2.488904 -59.852357 39.044972 43.874255 -34.654144 175.327673 10.844223 -127.006136 -5.09565 -3.218914 -0.294468 -78.482497 -75.170594 -69.004348 79.5044 68.179987 -79.058579 132.781297 59.580884 -124.680186 146.286743 -0.019114 153.971904 146.430275 -11.842716 152.721154 20.698097 13.924484 25.36568 -70.155439 -22.49243 -48.668977 -4.725722 51.111652 -17.206349 68.170006 7.374645 0.336217 -109.582794 61.640115 -37.11766 133.943937 63.524875 42.498559 11.383232 42.829786 72.624807 -92.157602 47.857432 -2.70773
-0.9742999999999999 65.834 1.9496 175.028061 -38.368215 -178.824293 -6.07326 9.320743 -109.613812 -1.058884 5.463066 104.712114 -13.651155 32.416148 -106.702553 44.750418 17.022244 67.191535 10.709151 2.604062 27.261724 13.619683 -2.455748 -20.350936 -159.68588 -75.712227 178.351015 -98.33161 -50.280215 -84.040952 -98.491893 -40.189683 -85.514642 10.504459 -45.090116 2.449184 -171.98145 -9.434949 88.841801 22.373712 -78.893978 21.177502 -159.995405 -44.674146 126.404694 -4.810525 31.875241 8.431683 4.105405 0.328714 9.493168 -18.415633 65.643698 21.301536 -3.010378 0.857844 -9.538774 -29.533239 69.996686 67.256945 -163.746066 36.582901 -141.485238 -156.832496 -4.129805 -129.566006 147.807528 12.228721 -153.89274 -139.065825 7.446611 -157.278445 -179.257689 -8.925518 -107.341594 -169.464073 -22.455377 -146.049568 -8.028744 0.637375 6.154275 131.61752 -75.080246 -146.184808 78.540659 40.325135 -72.476814 -97.398153 -69.634051 -39.876119 161.21791 -34.222967 -146.296729 -10.071877 0.886133 -15.092149 149.075269 2.718524 173.830582 -138.650378 70.562474 132.290483 29.39902 -28.876857 34.987859 116.307226 41.827637 -161.049706 2.867959 1.358612 0.721124 -41.350257 -46.111231 129.31374 44.064953 -49.570178 150.938113 127.984876 -72.834159 -125.130569 147.184278 71.772165 34.173059 -130.045996 68.708665 -0.0 33.363731 38.204216 71.77715 -151.315873 -63.361835 118.896163
